<svg width="44" height="44" viewBox="0 0 44 44" fill="none" xmlns="http://www.w3.org/2000/svg">
<g filter="url(#filter0_d_82_94)">
<path d="M21.7023 18.0204C21.4851 18.0204 21.2767 17.9341 21.1231 17.7805C20.9695 17.6268 20.8832 17.4185 20.8832 17.2013V14.7439H17.6068C17.1723 14.7439 16.7556 14.5713 16.4484 14.2641C16.1412 13.9569 15.9686 13.5402 15.9686 13.1057V4.91465C15.9686 4.48016 16.1412 4.06348 16.4484 3.75625C16.7556 3.44903 17.1723 3.27643 17.6068 3.27643H29.0743C29.5088 3.27643 29.9255 3.44903 30.2327 3.75625C30.5399 4.06348 30.7125 4.48016 30.7125 4.91465V13.1057C30.7125 13.5402 30.5399 13.9569 30.2327 14.2641C29.9255 14.5713 29.5088 14.7439 29.0743 14.7439H25.716L22.6853 17.7828C22.5214 17.9385 22.3167 18.0204 22.1119 18.0204H21.7023ZM22.5214 13.1057V15.6286L25.0443 13.1057H29.0743V4.91465H17.6068V13.1057H22.5214ZM14.3304 11.4675H12.6921V1.63822C12.6921 1.20373 12.8647 0.787047 13.172 0.479822C13.4792 0.172597 13.8959 0 14.3304 0H27.4361V1.63822H14.3304V11.4675Z" fill="white"/>
<path d="M23.9589 22.7051H19.8837V25.5555C20.0693 25.2957 20.3402 25.0841 20.6965 24.9208C21.0528 24.7501 21.4388 24.6647 21.8545 24.6647C22.4632 24.6647 22.9605 24.7909 23.3465 25.0433C23.7325 25.2882 24.0109 25.6111 24.1816 26.012C24.3523 26.4054 24.4377 26.8285 24.4377 27.2813C24.4377 27.8009 24.3375 28.2723 24.137 28.6954C23.9441 29.1111 23.6434 29.4414 23.2352 29.6864C22.8343 29.9313 22.3333 30.0538 21.732 30.0538C20.9674 30.0538 20.3476 29.8571 19.8726 29.4637C19.3975 29.0628 19.108 28.5247 19.0041 27.8492H19.7723C19.8688 28.3391 20.0915 28.7177 20.4404 28.9849C20.7893 29.2521 21.2198 29.3857 21.732 29.3857C22.3778 29.3857 22.864 29.1964 23.1906 28.8179C23.5247 28.4319 23.6917 27.9234 23.6917 27.2924C23.6917 26.6763 23.5247 26.1976 23.1906 25.8561C22.8566 25.5072 22.3778 25.3328 21.7543 25.3328C21.3237 25.3328 20.9452 25.433 20.6186 25.6334C20.292 25.8338 20.0507 26.1048 19.8948 26.4462H19.16V22.0259H23.9589V22.7051Z" fill="white"/>
</g>
<defs>
<filter id="filter0_d_82_94" x="-4" y="0" width="51.4048" height="43.0204" filterUnits="userSpaceOnUse" color-interpolation-filters="sRGB">
<feFlood flood-opacity="0" result="BackgroundImageFix"/>
<feColorMatrix in="SourceAlpha" type="matrix" values="0 0 0 0 0 0 0 0 0 0 0 0 0 0 0 0 0 0 127 0" result="hardAlpha"/>
<feOffset dy="4"/>
<feGaussianBlur stdDeviation="2"/>
<feComposite in2="hardAlpha" operator="out"/>
<feColorMatrix type="matrix" values="0 0 0 0 0 0 0 0 0 0 0 0 0 0 0 0 0 0 0.25 0"/>
<feBlend mode="normal" in2="BackgroundImageFix" result="effect1_dropShadow_82_94"/>
<feBlend mode="normal" in="SourceGraphic" in2="effect1_dropShadow_82_94" result="shape"/>
</filter>
</defs>
</svg>
