<svg width="315" height="301" viewBox="0 0 315 301" fill="none" xmlns="http://www.w3.org/2000/svg">
<g clip-path="url(#clip0_1_296)">
<path d="M298.823 171.183C291.081 196.85 273.682 225.218 247.202 235.015C207.196 249.823 204.483 282.895 131.189 284.642C119.761 284.915 109.125 284.011 99.2789 282.1C93.9876 281.074 88.9195 279.747 84.096 278.151C40.2582 263.727 15.4852 227.281 11.0167 187.746C5.13385 135.747 40.0421 108.491 62.8366 92.38C85.6311 76.2689 110.537 17.9876 182.576 15.7046C193.56 15.3605 204.592 16.1375 215.377 18.3056C239.993 23.2406 265.528 36.0474 281.203 56.1848C282.377 57.6959 283.511 59.2518 284.599 60.8398C305.846 91.873 309.378 136.188 298.823 171.183Z" fill="#C9BFFF" stroke="#15191B" stroke-width="0.214602" stroke-miterlimit="10"/>
<path d="M47.2785 46.3535L54.6489 53.6871" stroke="#C9BFFF" stroke-width="0.85841" stroke-miterlimit="10"/>
<path d="M54.6489 46.3535L47.2785 53.6871" stroke="#C9BFFF" stroke-width="0.85841" stroke-miterlimit="10"/>
<path d="M255.098 239.007L262.469 246.34" stroke="#C9BFFF" stroke-width="0.85841" stroke-miterlimit="10"/>
<path d="M262.469 239.007L255.098 246.34" stroke="#C9BFFF" stroke-width="0.85841" stroke-miterlimit="10"/>
<path d="M92.2299 85.1909L97.2403 90.1763" stroke="#15191B" stroke-width="0.85841" stroke-linecap="round" stroke-linejoin="round"/>
<path d="M97.2403 85.1909L92.2299 90.1763" stroke="#15191B" stroke-width="0.85841" stroke-linecap="round" stroke-linejoin="round"/>
<path d="M219.819 204.083L224.83 209.068" stroke="#15191B" stroke-width="0.85841" stroke-linecap="round" stroke-linejoin="round"/>
<path d="M224.83 204.083L219.819 209.068" stroke="#15191B" stroke-width="0.85841" stroke-linecap="round" stroke-linejoin="round"/>
<path d="M67.2094 249.597L72.2198 254.583" stroke="#EEEAE7" stroke-width="0.85841" stroke-miterlimit="10"/>
<path d="M72.2198 249.597L67.2094 254.583" stroke="#EEEAE7" stroke-width="0.85841" stroke-miterlimit="10"/>
<path d="M55.2614 75.3831C55.2614 73.6495 53.8464 72.2417 52.1041 72.2417C50.3618 72.2417 48.9469 73.6495 48.9469 75.3831C48.9469 77.1167 50.3618 78.5246 52.1041 78.5246C53.8464 78.5246 55.2614 77.1167 55.2614 75.3831Z" stroke="#15191B" stroke-width="0.85841" stroke-linecap="round" stroke-linejoin="round"/>
<path d="M255.193 210.755C256.937 210.755 258.351 209.348 258.351 207.613C258.351 205.878 256.937 204.472 255.193 204.472C253.45 204.472 252.036 205.878 252.036 207.613C252.036 209.348 253.45 210.755 255.193 210.755Z" stroke="#15191B" stroke-width="0.85841" stroke-linecap="round" stroke-linejoin="round"/>
<path d="M135.708 264.112C135.708 262.379 134.293 260.971 132.551 260.971C130.809 260.971 129.394 262.379 129.394 264.112C129.394 265.846 130.809 267.254 132.551 267.254C134.293 267.254 135.708 265.846 135.708 264.112Z" stroke="#C9BFFF" stroke-width="0.85841" stroke-miterlimit="10"/>
<path d="M87.2036 182.503C87.2036 180.769 85.7886 179.361 84.0463 179.361C82.304 179.361 80.8891 180.769 80.8891 182.503C80.8891 184.236 82.304 185.644 84.0463 185.644C85.7886 185.644 87.2036 184.236 87.2036 182.503Z" stroke="#15191B" stroke-width="0.85841" stroke-linecap="round" stroke-linejoin="round"/>
<path d="M275.309 87.1557C275.309 85.4221 273.894 84.0142 272.152 84.0142C270.409 84.0142 268.994 85.4221 268.994 87.1557C268.994 88.8893 270.409 90.2971 272.152 90.2971C273.894 90.2971 275.309 88.8893 275.309 87.1557Z" stroke="#C9BFFF" stroke-width="0.85841" stroke-miterlimit="10"/>
<path d="M278.92 139.594H22.8493" stroke="#15191B" stroke-width="0.85841" stroke-linecap="round" stroke-linejoin="round"/>
<path d="M43.873 169.937L45.2616 182.497C45.2616 186.185 51.4864 189.179 59.1578 189.179C66.8292 189.179 73.054 186.19 73.054 182.497L74.4426 169.937H43.873Z" fill="#B6BCBE" stroke="#15191B" stroke-width="0.85841" stroke-linecap="round" stroke-linejoin="round"/>
<path d="M42.8752 162.509V170.252C42.8752 172.232 50.1665 174.691 59.1631 174.691C68.1597 174.691 75.451 172.227 75.451 170.252V162.509H42.8752Z" fill="#B6BCBE" stroke="#15191B" stroke-width="0.85841" stroke-linecap="round" stroke-linejoin="round"/>
<path d="M59.1631 167.1C68.1586 167.1 75.451 165.044 75.451 162.509C75.451 159.973 68.1586 157.917 59.1631 157.917C50.1675 157.917 42.8752 159.973 42.8752 162.509C42.8752 165.044 50.1675 167.1 59.1631 167.1Z" fill="#B6BCBE" stroke="#15191B" stroke-width="0.85841" stroke-linecap="round" stroke-linejoin="round"/>
<path d="M59.1631 166.086C66.1729 166.086 71.8555 164.484 71.8555 162.509C71.8555 160.533 66.1729 158.931 59.1631 158.931C52.1533 158.931 46.4707 160.533 46.4707 162.509C46.4707 164.484 52.1533 166.086 59.1631 166.086Z" fill="#15191B"/>
<path d="M31.1806 117.688C32.6906 118.097 36.1436 117.52 36.1488 117.52C36.1858 117.514 35.0718 115.366 34.9873 115.24C33.9947 113.763 31.207 111.499 29.2852 112.04C27.9019 112.434 27.3212 113.953 27.8333 115.229C28.356 116.532 29.8924 117.336 31.1753 117.688H31.1806Z" fill="#15191B"/>
<path d="M66.3804 113.38C66.4121 113.396 66.6761 110.995 66.6761 110.843C66.6655 109.067 65.599 105.647 63.6931 105.048C62.3203 104.618 60.9951 105.563 60.7153 106.908C60.4302 108.279 61.2644 109.792 62.1408 110.79C63.1704 111.962 66.3752 113.375 66.3752 113.38H66.3804Z" fill="#15191B"/>
<path d="M74.9124 99.38C72.9167 99.4536 70.9738 102.469 70.488 104.176C70.4458 104.323 70.0604 106.708 70.0974 106.703C70.0974 106.703 70.129 106.703 70.1396 106.698C69.8281 107.171 69.5007 107.685 69.1523 108.248C68.5187 109.298 67.8165 110.491 67.1407 111.841C66.4596 113.186 65.7574 114.672 65.1608 116.296C64.5589 117.924 64.0098 119.673 63.6772 121.544C63.6772 121.565 63.6772 121.586 63.6667 121.607C63.5928 121.029 63.334 119.421 63.2971 119.3C62.8166 117.593 60.879 114.572 58.8833 114.494C57.4472 114.436 56.4176 115.702 56.5021 117.073C56.5919 118.47 57.8009 119.71 58.9096 120.446C60.1609 121.27 63.3763 121.78 63.635 121.822C63.334 123.608 63.1757 125.463 63.1123 127.354C63.0753 128.431 63.0753 129.523 63.0859 130.611C63.0067 130.112 62.9328 129.67 62.9117 129.607C62.4312 127.9 60.4936 124.879 58.4978 124.801C57.0618 124.743 56.0322 126.009 56.1167 127.38C56.2064 128.783 57.4155 130.017 58.5242 130.753C59.6488 131.493 62.3837 131.987 63.107 132.103C63.1176 132.523 63.1229 132.938 63.1334 133.358C63.1862 135.365 63.2443 137.372 63.239 139.336C63.239 140.03 63.2126 140.713 63.1862 141.396C63.1123 140.954 63.0489 140.581 63.0331 140.529C62.5527 138.822 60.615 135.801 58.6193 135.722C57.1832 135.664 56.1536 136.93 56.2434 138.302C56.3332 139.699 57.5422 140.939 58.6509 141.674C59.728 142.383 62.2464 142.856 63.107 143.003C63.0595 143.702 63.0173 144.401 62.9433 145.078C62.88 145.541 62.8536 145.987 62.7638 146.444C62.6846 146.901 62.6107 147.353 62.5315 147.799C62.352 148.656 62.1725 149.538 61.9772 150.368C61.8452 150.946 61.7079 151.492 61.5759 152.049C61.5865 151.361 61.5759 150.011 61.5601 149.895C61.4175 148.724 60.7259 146.891 59.7016 145.677C59.6805 145.504 59.6488 145.336 59.596 145.168C59.1842 143.859 57.7692 143.045 56.4493 143.607C54.612 144.39 53.8886 147.899 54.0523 149.664C54.0629 149.769 54.2952 150.888 54.4536 151.592C54.2952 151.193 54.1526 150.804 53.9837 150.395C53.6616 149.586 53.3132 148.782 52.9436 147.92C52.7482 147.51 52.5582 147.095 52.3575 146.675C52.1727 146.255 51.9193 145.835 51.7028 145.414C51.1749 144.443 50.5941 143.481 49.9869 142.525C50.6997 142.241 53.2181 141.201 54.1526 140.245C55.0819 139.294 56.0005 137.829 55.7893 136.442C55.5834 135.086 54.311 134.067 52.9172 134.425C50.9848 134.918 49.7335 138.28 49.6279 140.051C49.6226 140.161 49.6913 141.443 49.7388 142.142C49.3692 141.569 49.0049 140.996 48.6089 140.434C47.4738 138.801 46.2753 137.183 45.0874 135.565C44.7231 135.071 44.3641 134.572 44.005 134.073C44.2585 133.973 47.2837 132.801 48.3291 131.735C49.2583 130.784 50.177 129.318 49.9658 127.932C49.7599 126.576 48.4875 125.557 47.0937 125.914C45.1613 126.408 43.91 129.77 43.8044 131.541C43.7991 131.672 43.8942 133.516 43.947 133.983C43.155 132.885 42.3789 131.787 41.6556 130.674C40.6577 129.135 39.7602 127.574 39.0052 125.993C39.1266 125.946 42.2839 124.738 43.3556 123.645C44.2849 122.694 45.2035 121.228 44.9923 119.842C44.7864 118.486 43.514 117.467 42.1202 117.824C40.1878 118.318 38.9365 121.68 38.8309 123.451C38.8256 123.566 38.8996 124.969 38.9524 125.636C38.8943 125.652 38.9048 125.646 38.8415 125.662C38.0548 123.96 37.5057 122.216 37.0728 120.556C36.8194 119.595 36.6346 118.665 36.4709 117.751C37.0833 117.588 39.871 116.8 40.9428 115.923C41.9723 115.082 43.0441 113.721 42.9861 112.324C42.928 110.953 41.777 109.803 40.3515 110.002C38.3769 110.286 36.7613 113.485 36.4603 115.234C36.4445 115.329 36.3864 116.317 36.3547 117.031C36.2861 116.621 36.2122 116.196 36.1541 115.796C35.9376 114.31 35.8373 112.933 35.7529 111.715C35.7106 111.021 35.6895 110.396 35.6737 109.808C36.1911 109.335 38.2396 107.397 38.7781 106.151C39.3008 104.933 39.6282 103.236 38.926 102.017C38.2396 100.825 36.6821 100.331 35.5153 101.166C33.8891 102.322 33.9419 105.905 34.4857 107.596C34.5332 107.743 35.5311 109.944 35.5575 109.918C35.5575 109.918 35.5839 109.897 35.5892 109.892C35.5892 110.459 35.605 111.063 35.6261 111.725C35.6842 112.949 35.7581 114.331 35.9376 115.828C36.1172 117.325 36.3547 118.948 36.756 120.635C37.1573 122.326 37.6694 124.081 38.4297 125.825C38.4402 125.846 38.4508 125.862 38.4561 125.883C38.0759 125.441 36.9672 124.244 36.8722 124.16C35.5258 122.999 32.2313 121.544 30.5259 122.573C29.2958 123.314 29.1374 124.932 29.9716 126.03C30.8216 127.149 32.5164 127.517 33.8469 127.522C35.3516 127.522 38.3135 126.182 38.5511 126.077C39.2903 127.732 40.1878 129.366 41.1804 130.973C41.7506 131.893 42.3525 132.801 42.9649 133.705C42.6218 133.332 42.3155 133.006 42.268 132.964C40.9217 131.803 37.6272 130.348 35.9218 131.378C34.6916 132.118 34.5332 133.736 35.3674 134.834C36.2175 135.953 37.9123 136.321 39.2427 136.326C40.5943 136.326 43.1444 135.234 43.815 134.939C44.0526 135.281 44.2901 135.628 44.533 135.974C45.6893 137.619 46.8508 139.258 47.9384 140.902C48.3238 141.48 48.6776 142.063 49.0366 142.646C48.7304 142.315 48.4717 142.042 48.4294 142.005C47.0831 140.844 43.7886 139.389 42.0832 140.419C40.8531 141.159 40.6947 142.777 41.5289 143.875C42.3789 144.994 44.0737 145.362 45.4042 145.367C46.6924 145.367 49.0577 144.38 49.855 144.033C50.2034 144.642 50.5572 145.246 50.8687 145.85C51.0693 146.265 51.2963 146.654 51.4758 147.085C51.6659 147.505 51.8507 147.925 52.0355 148.341C52.3628 149.15 52.7007 149.985 52.9964 150.783C53.2076 151.335 53.3976 151.871 53.593 152.407C53.2181 151.829 52.4578 150.704 52.3839 150.62C51.2277 149.27 48.1971 147.337 46.3545 148.099C45.024 148.65 44.6228 150.221 45.2827 151.429C45.9532 152.664 47.5741 153.284 48.8888 153.489C50.3407 153.709 53.3554 152.879 53.7303 152.774C54.047 153.662 54.348 154.529 54.6172 155.348C55.5518 158.164 56.2223 160.549 56.6711 162.235L58.0121 162.041C58.0015 162.004 57.991 161.967 57.9804 161.931C57.4894 160.234 56.7502 157.817 55.7365 154.97C55.4198 154.067 55.0607 153.11 54.6806 152.133C54.8971 152.007 56.1325 151.293 57.199 150.479C58.3711 151.424 61.1482 152.322 61.5073 152.438C61.2802 153.352 61.0479 154.24 60.8209 155.07C60.0395 157.933 59.274 160.292 58.7143 161.941L60.1821 161.731C60.6836 160.103 61.3172 157.933 61.9613 155.369C62.1936 154.44 62.4259 153.447 62.6582 152.422C63.0437 152.449 66.1745 152.622 67.542 152.097C68.788 151.624 70.2346 150.673 70.6306 149.328C71.016 148.01 70.2874 146.554 68.8725 146.297C66.9084 145.94 64.3583 148.472 63.5136 150.032C63.466 150.127 63.0384 151.183 62.7797 151.86C62.8694 151.44 62.9645 151.035 63.0542 150.605C63.2337 149.748 63.3921 148.892 63.5611 147.973C63.6297 147.526 63.6931 147.074 63.7617 146.617C63.8409 146.166 63.862 145.677 63.9148 145.204C64.0151 144.101 64.0626 142.982 64.0838 141.853C64.8335 142.01 67.5156 142.525 68.8197 142.241C70.1185 141.958 71.7024 141.243 72.2937 139.967C72.8745 138.722 72.3782 137.172 71.016 136.705C69.1259 136.058 66.222 138.17 65.1503 139.594C65.0816 139.683 64.4322 140.786 64.0838 141.401C64.0943 140.723 64.1049 140.046 64.0838 139.357C64.0415 137.372 63.9412 135.365 63.8462 133.363C63.8145 132.749 63.7934 132.139 63.7723 131.525C64.0415 131.583 67.2094 132.265 68.6718 131.945C69.9759 131.661 71.5546 130.947 72.1459 129.67C72.7266 128.425 72.2304 126.876 70.8682 126.408C68.9781 125.762 66.0742 127.874 65.0024 129.297C64.9232 129.402 63.9835 130.994 63.767 131.409C63.7142 130.059 63.6772 128.714 63.6878 127.39C63.7036 125.557 63.8251 123.766 64.0679 122.032C64.1946 122.058 67.4997 122.783 68.9992 122.458C70.3033 122.174 71.8819 121.46 72.4732 120.183C73.054 118.938 72.5577 117.388 71.1955 116.921C69.3054 116.275 66.4016 118.386 65.3298 119.81C65.2611 119.905 64.5431 121.113 64.2158 121.696C64.1577 121.675 64.1682 121.68 64.1102 121.659C64.3953 119.81 64.9074 118.05 65.4618 116.427C65.7838 115.487 66.1428 114.604 66.5124 113.758C67.1143 113.958 69.8756 114.83 71.2589 114.688C72.5841 114.551 74.2314 114.01 74.96 112.807C75.6727 111.631 75.3507 110.039 74.0518 109.43C72.2462 108.578 69.1259 110.365 67.9063 111.657C67.8376 111.725 67.2463 112.518 66.8187 113.096C66.9929 112.718 67.1618 112.319 67.3361 111.956C67.9802 110.596 68.656 109.393 69.2632 108.332C69.6116 107.733 69.9442 107.197 70.2557 106.698C70.9474 106.588 73.7298 106.099 74.8702 105.348C75.9842 104.618 77.1933 103.383 77.283 101.98C77.3728 100.609 76.3485 99.3433 74.9124 99.3958V99.38Z" fill="#15191B"/>
<path d="M202.095 245.263L201.847 243.619C201.926 243.609 210.01 242.353 213.874 238.655C214.703 237.861 214.682 237.289 214.598 236.926C213.705 233.233 200.042 227.471 172.83 219.302C168.347 217.957 164.008 216.675 159.847 215.446C132.678 207.419 114.727 202.118 113.486 196.103C113.175 194.601 113.856 193.14 115.513 191.775C124.932 183.994 162.418 181.173 164.008 181.053L164.129 182.707C163.744 182.734 125.587 185.602 116.58 193.051C114.853 194.475 115.054 195.447 115.123 195.767C116.163 200.81 135.65 206.563 160.322 213.849C164.483 215.078 168.828 216.36 173.31 217.705C209.656 228.616 215.416 233.202 216.224 236.532C216.509 237.709 216.108 238.823 215.036 239.847C210.786 243.913 202.454 245.206 202.101 245.258L202.095 245.263Z" fill="white" stroke="#15191B" stroke-width="0.85841" stroke-linecap="round" stroke-linejoin="round"/>
<path d="M116.691 190.924L119.098 191.444C131.157 185.197 163.765 182.744 164.118 182.718L163.997 181.063C162.466 181.173 127.699 183.795 116.691 190.924Z" fill="#15191B" stroke="#15191B" stroke-width="0.85841" stroke-linecap="round" stroke-linejoin="round"/>
<path d="M206.578 247.039C207.211 244.995 206.425 242.758 204.63 241.581C202.201 239.994 197.782 238.061 190.285 237.525C177.017 236.58 168.01 241.455 163.749 245.542C159.483 249.629 160.433 254.499 166.595 257.488C172.756 260.472 177.18 261.26 182.391 260.472C187.603 259.684 196.135 255.602 199.133 253.558C202.132 251.515 205.77 249.629 206.557 247.112C206.562 247.086 206.573 247.06 206.578 247.039Z" fill="#B0A3FF" stroke="#15191B" stroke-width="0.85841" stroke-miterlimit="10"/>
<path d="M186.177 256.705C178.754 261.732 171.642 259.379 171.642 259.379L171.478 259.515C175.327 260.792 178.653 261.039 182.386 260.477C187.597 259.689 196.129 255.607 199.128 253.564C202.127 251.52 205.765 249.634 206.551 247.118C206.557 247.091 206.567 247.065 206.573 247.044C206.636 246.839 206.683 246.634 206.715 246.43C202.037 247.559 192.745 252.255 186.172 256.705H186.177Z" fill="white" stroke="#15191B" stroke-width="0.85841" stroke-linecap="round" stroke-linejoin="round"/>
<path d="M175.274 248.058C175.274 249.188 173.896 250.102 172.196 250.102C170.496 250.102 169.118 249.188 169.118 248.058C169.118 246.929 170.496 246.015 172.196 246.015C173.896 246.015 175.274 246.929 175.274 248.058Z" fill="white" stroke="#15191B" stroke-width="0.85841" stroke-linecap="round" stroke-linejoin="round"/>
<path d="M113.206 216.806L112.868 215.178C117.863 214.148 121.168 212.662 121.633 211.921C121.12 211.38 118.982 210.256 117.235 209.336C110.862 205.99 100.202 200.385 103.592 193.161C105.577 188.927 116.369 185.229 136.595 181.851C151.268 179.398 165.581 178.085 165.723 178.069L165.877 179.724C165.734 179.734 151.473 181.047 136.865 183.49C111.48 187.735 106.073 191.811 105.107 193.865C102.388 199.66 111.796 204.598 118.021 207.871C121.802 209.856 123.528 210.765 123.343 212.021C122.984 214.526 116.136 216.202 113.206 216.801V216.806Z" fill="white" stroke="#15191B" stroke-width="0.85841" stroke-linecap="round" stroke-linejoin="round"/>
<path d="M165.723 178.074C165.581 178.085 151.268 179.403 136.595 181.856C123.042 184.121 113.734 186.532 108.465 189.148L111.232 189.747C115.804 187.887 123.607 185.718 136.865 183.501C151.474 181.058 165.734 179.75 165.877 179.734L165.723 178.079V178.074Z" fill="#15191B" stroke="#15191B" stroke-width="0.85841" stroke-linecap="round" stroke-linejoin="round"/>
<path d="M165.042 228.653L134.848 245.752L24.845 207.792L58.2919 195.799L165.042 228.653Z" fill="white" stroke="#15191B" stroke-width="0.85841" stroke-linecap="round" stroke-linejoin="round"/>
<path d="M116.532 219.964L120.123 221.062L123.876 219.113L120.328 218.051L116.532 219.964Z" fill="#15191B" stroke="#15191B" stroke-width="0.85841" stroke-linecap="round" stroke-linejoin="round"/>
<path d="M110.962 215.409L107.853 217.311L115.001 219.496L118.782 217.594L111.142 215.314L110.962 215.409Z" fill="#15191B" stroke="#15191B" stroke-width="0.85841" stroke-linecap="round" stroke-linejoin="round"/>
<path d="M121.633 221.524L125.455 222.69L129.256 220.715L125.402 219.564L121.633 221.524Z" fill="#15191B" stroke="#15191B" stroke-width="0.85841" stroke-linecap="round" stroke-linejoin="round"/>
<path d="M97.2403 214.069L100.693 215.125L104.236 213.26L101.063 212.315L97.2403 214.069Z" fill="#15191B" stroke="#15191B" stroke-width="0.85841" stroke-linecap="round" stroke-linejoin="round"/>
<path d="M102.198 215.582L106.432 216.88L109.695 214.884L105.751 213.712L102.198 215.582Z" fill="#15191B" stroke="#15191B" stroke-width="0.85841" stroke-linecap="round" stroke-linejoin="round"/>
<path d="M119.389 225.837L115.614 224.65L111.865 226.598L115.593 227.812L119.389 225.837Z" fill="#15191B" stroke="#15191B" stroke-width="0.85841" stroke-linecap="round" stroke-linejoin="round"/>
<path d="M126.97 223.152L131.791 224.628L135.656 222.622L130.788 221.172L126.97 223.152Z" fill="#15191B" stroke="#15191B" stroke-width="0.85841" stroke-linecap="round" stroke-linejoin="round"/>
<path d="M88.0008 211.248L91.3007 212.252L94.9648 210.497L91.5752 209.489L88.0008 211.248Z" fill="#15191B" stroke="#15191B" stroke-width="0.85841" stroke-linecap="round" stroke-linejoin="round"/>
<path d="M131.104 229.525L127.155 228.285L123.253 230.313L127.372 231.657L131.104 229.525Z" fill="#15191B" stroke="#15191B" stroke-width="0.85841" stroke-linecap="round" stroke-linejoin="round"/>
<path d="M135.613 226.95L131.902 225.821L128.549 227.56L132.414 228.779L135.613 226.95Z" fill="#15191B" stroke="#15191B" stroke-width="0.85841" stroke-linecap="round" stroke-linejoin="round"/>
<path d="M133.306 225.091L136.938 226.199L140.618 224.098L137.181 223.079L133.306 225.091Z" fill="#15191B" stroke="#15191B" stroke-width="0.85841" stroke-linecap="round" stroke-linejoin="round"/>
<path d="M125.656 227.812L120.888 226.31L117.066 228.295L121.775 229.829L125.656 227.812Z" fill="#15191B" stroke="#15191B" stroke-width="0.85841" stroke-linecap="round" stroke-linejoin="round"/>
<path d="M146.437 225.832L142.086 224.539L138.396 226.646L142.678 227.954L146.437 225.832Z" fill="#15191B" stroke="#15191B" stroke-width="0.85841" stroke-linecap="round" stroke-linejoin="round"/>
<path d="M141.342 228.705L137.07 227.397L133.855 229.23L138.058 230.554L141.342 228.705Z" fill="#15191B" stroke="#15191B" stroke-width="0.85841" stroke-linecap="round" stroke-linejoin="round"/>
<path d="M96.4906 210.991L92.8634 212.73L95.6406 213.581L99.4525 211.832L96.5487 210.97L96.4906 210.991Z" fill="#15191B" stroke="#15191B" stroke-width="0.85841" stroke-linecap="round" stroke-linejoin="round"/>
<path d="M44.8181 208.259L47.9279 206.904L46.0166 206.279L42.7485 207.566L44.8181 208.259Z" fill="#15191B" stroke="#15191B" stroke-width="0.85841" stroke-linecap="round" stroke-linejoin="round"/>
<path d="M45.7051 205.013L49.459 206.237L52.6796 204.834L48.8676 203.631L45.7051 205.013Z" fill="#15191B" stroke="#15191B" stroke-width="0.85841" stroke-linecap="round" stroke-linejoin="round"/>
<path d="M50.4146 202.959L54.2266 204.157L57.0248 202.938L53.1601 201.761L50.4146 202.959Z" fill="#15191B" stroke="#15191B" stroke-width="0.85841" stroke-linecap="round" stroke-linejoin="round"/>
<path d="M61.1324 211.212L58.8938 210.481L55.425 211.821L57.9382 212.667L61.1324 211.212Z" fill="#15191B" stroke="#15191B" stroke-width="0.85841" stroke-linecap="round" stroke-linejoin="round"/>
<path d="M52.6004 208.427L49.5118 207.424L46.3862 208.785L49.4484 209.814L52.6004 208.427Z" fill="#15191B" stroke="#15191B" stroke-width="0.85841" stroke-linecap="round" stroke-linejoin="round"/>
<path d="M55.8369 204.666L57.4736 205.181L60.1504 203.894L58.6562 203.437L55.8369 204.666Z" fill="#15191B" stroke="#15191B" stroke-width="0.85841" stroke-linecap="round" stroke-linejoin="round"/>
<path d="M57.2254 209.94L54.179 208.942L51.0112 210.34L53.7778 211.269L57.2254 209.94Z" fill="#15191B" stroke="#15191B" stroke-width="0.85841" stroke-linecap="round" stroke-linejoin="round"/>
<path d="M83.3389 209.82L86.4539 210.776L90.0124 209.021L86.9713 208.117L83.3389 209.82Z" fill="#15191B" stroke="#15191B" stroke-width="0.85841" stroke-linecap="round" stroke-linejoin="round"/>
<path d="M74.5481 207.135L77.1141 207.918L80.4561 206.174L77.9219 205.417L74.5481 207.135Z" fill="#15191B" stroke="#15191B" stroke-width="0.85841" stroke-linecap="round" stroke-linejoin="round"/>
<path d="M61.4598 206.436L64.2474 205.144L61.7132 204.372L59.0205 205.669L61.4598 206.436Z" fill="#15191B" stroke="#15191B" stroke-width="0.85841" stroke-linecap="round" stroke-linejoin="round"/>
<path d="M78.6241 208.38L81.7602 209.336L85.3768 207.639L81.982 206.631L78.6241 208.38Z" fill="#15191B" stroke="#15191B" stroke-width="0.85841" stroke-linecap="round" stroke-linejoin="round"/>
<path d="M73.4922 204.13L69.9178 205.722L73.0223 206.668L76.3802 204.96L73.5397 204.114L73.4922 204.13Z" fill="#15191B" stroke="#15191B" stroke-width="0.85841" stroke-linecap="round" stroke-linejoin="round"/>
<path d="M65.2453 204.293L68.3023 205.228L71.903 203.626L68.6771 202.665L65.2453 204.293Z" fill="#15191B" stroke="#15191B" stroke-width="0.85841" stroke-linecap="round" stroke-linejoin="round"/>
<path d="M60.219 202.759L63.672 203.81L67.0879 202.192L63.7775 201.204L60.219 202.759Z" fill="#15191B" stroke="#15191B" stroke-width="0.85841" stroke-linecap="round" stroke-linejoin="round"/>
<path d="M105.255 220.226L110.355 221.834L113.565 220.216L108.175 218.566L105.255 220.226Z" fill="#15191B" stroke="#15191B" stroke-width="0.85841" stroke-linecap="round" stroke-linejoin="round"/>
<path d="M111.87 222.312L115.508 223.457L118.713 221.792L115.102 220.683L111.87 222.312Z" fill="#15191B" stroke="#15191B" stroke-width="0.85841" stroke-linecap="round" stroke-linejoin="round"/>
<path d="M130.386 225.353L125.566 223.883L122.277 225.59L127.05 227.087L130.386 225.353Z" fill="#15191B" stroke="#15191B" stroke-width="0.85841" stroke-linecap="round" stroke-linejoin="round"/>
<path d="M117.002 223.925L120.783 225.117L124.051 223.42L120.228 222.254L117.002 223.925Z" fill="#15191B" stroke="#15191B" stroke-width="0.85841" stroke-linecap="round" stroke-linejoin="round"/>
<path d="M65.8049 212.735L62.6899 211.721L59.4799 213.187L62.5896 214.232L65.8049 212.735Z" fill="#15191B" stroke="#15191B" stroke-width="0.85841" stroke-linecap="round" stroke-linejoin="round"/>
<path d="M90.0441 215.435L93.7716 216.612L96.4695 214.994L92.8423 213.886L90.0441 215.435Z" fill="#15191B" stroke="#15191B" stroke-width="0.85841" stroke-linecap="round" stroke-linejoin="round"/>
<path d="M95.1865 217.053L98.8137 218.198L101.596 216.559L97.895 215.43L95.1865 217.053Z" fill="#15191B" stroke="#15191B" stroke-width="0.85841" stroke-linecap="round" stroke-linejoin="round"/>
<path d="M100.239 218.645L103.814 219.774L106.712 218.12L103.032 216.995L100.239 218.645Z" fill="#15191B" stroke="#15191B" stroke-width="0.85841" stroke-linecap="round" stroke-linejoin="round"/>
<path d="M63.8884 208.364L61.5337 207.624L58.2919 209.121L60.7892 209.935L63.8884 208.364Z" fill="#15191B" stroke="#15191B" stroke-width="0.85841" stroke-linecap="round" stroke-linejoin="round"/>
<path d="M58.5876 202.26L62.1303 200.716L56.708 199.098L56.7186 199.129L52.743 200.474L58.5876 202.26Z" fill="#15191B" stroke="#15191B" stroke-width="0.85841" stroke-linecap="round" stroke-linejoin="round"/>
<path d="M50.932 199.917L54.9235 198.567L53.7831 198.226L49.9236 199.612L50.932 199.917Z" fill="#15191B" stroke="#15191B" stroke-width="0.85841" stroke-linecap="round" stroke-linejoin="round"/>
<path d="M155.85 227.481L161.304 229.104L162.719 228.306L157.345 226.667L155.85 227.481Z" fill="#15191B" stroke="#15191B" stroke-width="0.85841" stroke-linecap="round" stroke-linejoin="round"/>
<path d="M59.9656 207.125L57.5581 206.368L54.4483 207.865L56.745 208.617L59.9656 207.125Z" fill="#15191B" stroke="#15191B" stroke-width="0.85841" stroke-linecap="round" stroke-linejoin="round"/>
<path d="M85.4349 213.985L88.5816 214.978L91.3693 213.434L88.2068 212.467L85.4349 213.985Z" fill="#15191B" stroke="#15191B" stroke-width="0.85841" stroke-linecap="round" stroke-linejoin="round"/>
<path d="M51.0429 206.757L52.9225 207.372L56.0164 205.885L54.2899 205.338L51.0429 206.757Z" fill="#15191B" stroke="#15191B" stroke-width="0.85841" stroke-linecap="round" stroke-linejoin="round"/>
<path d="M80.5089 212.436L83.9724 213.523L86.7284 212.015L83.191 210.933L80.5089 212.436Z" fill="#15191B" stroke="#15191B" stroke-width="0.85841" stroke-linecap="round" stroke-linejoin="round"/>
<path d="M77.7265 212.719L74.6221 211.742L71.375 213.387L74.6326 214.453L77.7265 212.719Z" fill="#15191B" stroke="#15191B" stroke-width="0.85841" stroke-linecap="round" stroke-linejoin="round"/>
<path d="M82.6261 214.264L79.1785 213.176L76.0687 214.92L79.4213 216.013L82.6261 214.264Z" fill="#15191B" stroke="#15191B" stroke-width="0.85841" stroke-linecap="round" stroke-linejoin="round"/>
<path d="M92.4992 217.374L88.7083 216.176L85.4508 217.983L89.363 219.254L92.4992 217.374Z" fill="#15191B" stroke="#15191B" stroke-width="0.85841" stroke-linecap="round" stroke-linejoin="round"/>
<path d="M114.114 224.177L110.45 223.026L106.702 224.912L110.387 226.115L114.114 224.177Z" fill="#15191B" stroke="#15191B" stroke-width="0.85841" stroke-linecap="round" stroke-linejoin="round"/>
<path d="M97.5307 218.955L93.9141 217.815L90.7569 219.711L94.2943 220.867L97.5307 218.955Z" fill="#15191B" stroke="#15191B" stroke-width="0.85841" stroke-linecap="round" stroke-linejoin="round"/>
<path d="M108.935 222.548L98.951 219.401L95.6987 221.324L105.207 224.424L108.935 222.548Z" fill="#15191B" stroke="#15191B" stroke-width="0.85841" stroke-linecap="round" stroke-linejoin="round"/>
<path d="M87.2458 215.719L84.0886 214.721L80.868 216.486L84.0147 217.51L87.2458 215.719Z" fill="#15191B" stroke="#15191B" stroke-width="0.85841" stroke-linecap="round" stroke-linejoin="round"/>
<path d="M71.7763 209.683L74.5218 210.55L77.3094 209.137L74.564 208.296L71.7763 209.683Z" fill="#15191B" stroke="#15191B" stroke-width="0.85841" stroke-linecap="round" stroke-linejoin="round"/>
<path d="M66.8081 208.123L70.2505 209.205L73.0223 207.829L69.506 206.752L66.8081 208.123Z" fill="#15191B" stroke="#15191B" stroke-width="0.85841" stroke-linecap="round" stroke-linejoin="round"/>
<path d="M73.1121 211.264L70.3402 210.392L67.0404 211.973L69.8862 212.903L73.1121 211.264Z" fill="#15191B" stroke="#15191B" stroke-width="0.85841" stroke-linecap="round" stroke-linejoin="round"/>
<path d="M76.0318 211.028L79.057 211.979L81.718 210.487L78.8353 209.604L76.0318 211.028Z" fill="#15191B" stroke="#15191B" stroke-width="0.85841" stroke-linecap="round" stroke-linejoin="round"/>
<path d="M63.0278 206.93L65.2981 207.645L67.9749 206.284L65.8366 205.633L63.0278 206.93Z" fill="#15191B" stroke="#15191B" stroke-width="0.85841" stroke-linecap="round" stroke-linejoin="round"/>
<path d="M68.7933 209.909L65.3984 208.837L62.2781 210.424L65.5146 211.48L68.7933 209.909Z" fill="#15191B" stroke="#15191B" stroke-width="0.85841" stroke-linecap="round" stroke-linejoin="round"/>
<path d="M44.1212 204.498L47.2573 203.127L43.4665 201.934L40.04 203.164L44.1212 204.498Z" fill="#15191B" stroke="#15191B" stroke-width="0.85841" stroke-linecap="round" stroke-linejoin="round"/>
<path d="M75.1817 219.627L58.0016 213.859L57.9857 213.865L57.9804 213.849L49.5012 211.002L43.8731 213.481L69.8334 222.417L75.1817 219.627Z" fill="#15191B" stroke="#15191B" stroke-width="0.85841" stroke-linecap="round" stroke-linejoin="round"/>
<path d="M33.509 209.914L38.889 207.435L36.4023 206.599L30.5735 208.905L33.509 209.914Z" fill="#15191B" stroke="#15191B" stroke-width="0.85841" stroke-linecap="round" stroke-linejoin="round"/>
<path d="M43.3028 208.921L40.4201 207.949L35.0243 210.439L37.7063 211.359L43.3028 208.921Z" fill="#15191B" stroke="#15191B" stroke-width="0.85841" stroke-linecap="round" stroke-linejoin="round"/>
<path d="M47.9437 210.481L44.8709 209.447L39.2586 211.895L42.3314 212.95L47.9437 210.481Z" fill="#15191B" stroke="#15191B" stroke-width="0.85841" stroke-linecap="round" stroke-linejoin="round"/>
<path d="M89.759 224.529L86.5648 223.452L81 226.257L84.4846 227.455L89.759 224.529Z" fill="#15191B" stroke="#15191B" stroke-width="0.85841" stroke-linecap="round" stroke-linejoin="round"/>
<path d="M79.7856 221.177L76.6389 220.121L71.28 222.911L74.2472 223.935L79.7856 221.177Z" fill="#15191B" stroke="#15191B" stroke-width="0.85841" stroke-linecap="round" stroke-linejoin="round"/>
<path d="M85.0864 222.958L81.2745 221.676L75.7202 224.439L79.5322 225.753L85.0864 222.958Z" fill="#15191B" stroke="#15191B" stroke-width="0.85841" stroke-linecap="round" stroke-linejoin="round"/>
<path d="M69.6063 201.787L71.8027 200.637L67.8429 199.434L65.3562 200.516L69.6063 201.787Z" fill="#15191B" stroke="#15191B" stroke-width="0.85841" stroke-linecap="round" stroke-linejoin="round"/>
<path d="M71.1322 202.239L73.4816 202.938L76.0001 201.913L73.318 201.099L71.1322 202.239Z" fill="#15191B" stroke="#15191B" stroke-width="0.85841" stroke-linecap="round" stroke-linejoin="round"/>
<path d="M98.8982 227.597L91.1792 225.007L85.8942 227.943L93.2172 230.46L98.8982 227.597Z" fill="#15191B" stroke="#15191B" stroke-width="0.85841" stroke-linecap="round" stroke-linejoin="round"/>
<path d="M75.1764 203.447L77.8427 204.241L80.2291 203.2L77.679 202.428L75.1764 203.447Z" fill="#15191B" stroke="#15191B" stroke-width="0.85841" stroke-linecap="round" stroke-linejoin="round"/>
<path d="M36.3706 205.423L36.4023 205.412L36.4128 205.438L41.117 207.014L44.3588 205.743L38.3399 203.778L35.019 204.971L36.3706 205.423Z" fill="#15191B" stroke="#15191B" stroke-width="0.85841" stroke-linecap="round" stroke-linejoin="round"/>
<path d="M60.6308 199.108L63.7089 200.027L66.2115 198.935L63.239 198.031L60.6308 199.108Z" fill="#15191B" stroke="#15191B" stroke-width="0.85841" stroke-linecap="round" stroke-linejoin="round"/>
<path d="M51.5339 201.262L48.1813 200.238L45.193 201.314L48.8043 202.449L51.5339 201.262Z" fill="#15191B" stroke="#15191B" stroke-width="0.85841" stroke-linecap="round" stroke-linejoin="round"/>
<path d="M137.62 236.165L133.021 234.662L129.431 236.69L133.903 238.192L137.62 236.165Z" fill="#15191B" stroke="#15191B" stroke-width="0.85841" stroke-linecap="round" stroke-linejoin="round"/>
<path d="M154.483 228.232L150.571 230.365L156.093 232.051L159.963 229.866L154.483 228.232Z" fill="#15191B" stroke="#15191B" stroke-width="0.85841" stroke-linecap="round" stroke-linejoin="round"/>
<path d="M58.9413 198.609L61.5653 197.522L58.4081 196.56L55.5412 197.595L58.9413 198.609Z" fill="#15191B" stroke="#15191B" stroke-width="0.85841" stroke-linecap="round" stroke-linejoin="round"/>
<path d="M149.208 231.106L145.766 232.981L151.341 234.741L154.763 232.803L149.208 231.106Z" fill="#15191B" stroke="#15191B" stroke-width="0.85841" stroke-linecap="round" stroke-linejoin="round"/>
<path d="M134.008 239.395L128.274 242.521L134.061 244.512L139.721 241.313L134.008 239.395Z" fill="#15191B" stroke="#15191B" stroke-width="0.85841" stroke-linecap="round" stroke-linejoin="round"/>
<path d="M144.415 233.717L140.407 235.907L146.035 237.741L150.027 235.487L144.415 233.717Z" fill="#15191B" stroke="#15191B" stroke-width="0.85841" stroke-linecap="round" stroke-linejoin="round"/>
<path d="M35.0348 206.048L33.34 205.575L27.2473 207.76L28.9632 208.349L35.0348 206.048Z" fill="#15191B" stroke="#15191B" stroke-width="0.85841" stroke-linecap="round" stroke-linejoin="round"/>
<path d="M132.577 238.912L128.132 237.42L122.562 240.556L126.854 242.033L132.577 238.912Z" fill="#15191B" stroke="#15191B" stroke-width="0.85841" stroke-linecap="round" stroke-linejoin="round"/>
<path d="M115.397 233.139L110.741 231.579L105.054 234.531L109.658 236.117L115.397 233.139Z" fill="#15191B" stroke="#15191B" stroke-width="0.85841" stroke-linecap="round" stroke-linejoin="round"/>
<path d="M126.717 236.942L122.699 235.597L122.599 235.655L122.535 235.54L116.854 233.633L111.11 236.616L121.163 240.073L126.717 236.942Z" fill="#15191B" stroke="#15191B" stroke-width="0.85841" stroke-linecap="round" stroke-linejoin="round"/>
<path d="M109.283 231.085L105.598 229.85L99.9541 232.776L103.608 234.037L109.283 231.085Z" fill="#15191B" stroke="#15191B" stroke-width="0.85841" stroke-linecap="round" stroke-linejoin="round"/>
<path d="M144.726 238.481L139.066 236.637L135.339 238.67L141.014 240.577L144.726 238.481Z" fill="#15191B" stroke="#15191B" stroke-width="0.85841" stroke-linecap="round" stroke-linejoin="round"/>
<path d="M79.49 204.729L81.8922 205.444L84.2259 204.419L81.8605 203.699L79.49 204.729Z" fill="#15191B" stroke="#15191B" stroke-width="0.85841" stroke-linecap="round" stroke-linejoin="round"/>
<path d="M104.136 229.356L100.376 228.096L94.6797 230.964L98.5075 232.283L104.136 229.356Z" fill="#15191B" stroke="#15191B" stroke-width="0.85841" stroke-linecap="round" stroke-linejoin="round"/>
<path d="M107.367 213.035L111.031 214.127L112.916 213.15L109.579 212.136L107.367 213.035Z" fill="#15191B" stroke="#15191B" stroke-width="0.85841" stroke-linecap="round" stroke-linejoin="round"/>
<path d="M126.073 232.398L121.87 231.027L118.222 232.923L122.583 234.389L126.073 232.398Z" fill="#15191B" stroke="#15191B" stroke-width="0.85841" stroke-linecap="round" stroke-linejoin="round"/>
<path d="M114.209 228.526L110.487 227.313L106.966 229.141L110.651 230.376L114.209 228.526Z" fill="#15191B" stroke="#15191B" stroke-width="0.85841" stroke-linecap="round" stroke-linejoin="round"/>
<path d="M152.983 227.786L147.915 226.273L144.14 228.4L149.087 229.908L152.983 227.786Z" fill="#15191B" stroke="#15191B" stroke-width="0.85841" stroke-linecap="round" stroke-linejoin="round"/>
<path d="M131.59 234.195L127.493 232.86L123.993 234.862L128.016 236.212L131.59 234.195Z" fill="#15191B" stroke="#15191B" stroke-width="0.85841" stroke-linecap="round" stroke-linejoin="round"/>
<path d="M147.725 230.654L142.804 229.152L139.504 231.011L144.298 232.519L147.725 230.654Z" fill="#15191B" stroke="#15191B" stroke-width="0.85841" stroke-linecap="round" stroke-linejoin="round"/>
<path d="M136.733 231.3L132.546 229.982L128.797 232.12L132.905 233.459L136.733 231.3Z" fill="#15191B" stroke="#15191B" stroke-width="0.85841" stroke-linecap="round" stroke-linejoin="round"/>
<path d="M142.947 233.254L138.184 231.757L134.33 233.927L138.955 235.434L142.947 233.254Z" fill="#15191B" stroke="#15191B" stroke-width="0.85841" stroke-linecap="round" stroke-linejoin="round"/>
<path d="M120.397 230.544L115.688 229.01L112.108 230.869L116.759 232.43L120.397 230.544Z" fill="#15191B" stroke="#15191B" stroke-width="0.85841" stroke-linecap="round" stroke-linejoin="round"/>
<path d="M79.7064 217.269L76.338 216.171L73.054 217.747L76.5439 218.918L79.7064 217.269Z" fill="#15191B" stroke="#15191B" stroke-width="0.85841" stroke-linecap="round" stroke-linejoin="round"/>
<path d="M84.5004 218.834L81.1795 217.752L78.0011 219.407L81.19 220.478L84.5004 218.834Z" fill="#15191B" stroke="#15191B" stroke-width="0.85841" stroke-linecap="round" stroke-linejoin="round"/>
<path d="M74.8121 215.677L71.9717 214.747L68.8883 216.344L71.544 217.237L74.8121 215.677Z" fill="#15191B" stroke="#15191B" stroke-width="0.85841" stroke-linecap="round" stroke-linejoin="round"/>
<path d="M103.803 225.133L91.3218 221.062L87.9586 222.753L100.292 226.898L103.803 225.133Z" fill="#15191B" stroke="#15191B" stroke-width="0.85841" stroke-linecap="round" stroke-linejoin="round"/>
<path d="M109.009 226.83L105.297 225.621L101.77 227.397L105.503 228.647L109.009 226.83Z" fill="#15191B" stroke="#15191B" stroke-width="0.85841" stroke-linecap="round" stroke-linejoin="round"/>
<path d="M89.8223 220.573L85.9998 219.323L82.6736 220.977L86.4803 222.254L89.8223 220.573Z" fill="#15191B" stroke="#15191B" stroke-width="0.85841" stroke-linecap="round" stroke-linejoin="round"/>
<path d="M93.1538 208.8L96.4906 209.793L98.7978 208.853L95.4136 207.823L93.1538 208.8Z" fill="#15191B" stroke="#15191B" stroke-width="0.85841" stroke-linecap="round" stroke-linejoin="round"/>
<path d="M98.1854 210.298L100.994 211.138L103.212 210.198L100.472 209.362L98.1854 210.298Z" fill="#15191B" stroke="#15191B" stroke-width="0.85841" stroke-linecap="round" stroke-linejoin="round"/>
<path d="M102.663 211.632L105.672 212.53L107.9 211.621L104.864 210.702L102.663 211.632Z" fill="#15191B" stroke="#15191B" stroke-width="0.85841" stroke-linecap="round" stroke-linejoin="round"/>
<path d="M112.562 214.584L115.608 215.493V215.488L117.572 214.568L114.436 213.612L112.562 214.584Z" fill="#15191B" stroke="#15191B" stroke-width="0.85841" stroke-linecap="round" stroke-linejoin="round"/>
<path d="M70.4933 214.264L67.3519 213.239L64.1207 214.742L67.4258 215.856L70.4933 214.264Z" fill="#15191B" stroke="#15191B" stroke-width="0.85841" stroke-linecap="round" stroke-linejoin="round"/>
<path d="M88.4496 207.398L91.5013 208.307L93.7716 207.324L90.5932 206.358L88.4496 207.398Z" fill="#15191B" stroke="#15191B" stroke-width="0.85841" stroke-linecap="round" stroke-linejoin="round"/>
<path d="M83.5342 205.932L86.8763 206.93L89.0357 205.88L85.852 204.913L83.5342 205.932Z" fill="#15191B" stroke="#15191B" stroke-width="0.85841" stroke-linecap="round" stroke-linejoin="round"/>
<path d="M138.596 222.343L141.949 223.341L143.496 222.454L140.27 221.471L138.596 222.343Z" fill="#15191B" stroke="#15191B" stroke-width="0.85841" stroke-linecap="round" stroke-linejoin="round"/>
<path d="M132.203 220.436L137.07 221.886L138.755 221.014L133.924 219.543L132.203 220.436Z" fill="#15191B" stroke="#15191B" stroke-width="0.85841" stroke-linecap="round" stroke-linejoin="round"/>
<path d="M155.856 226.215L150.761 224.665L149.256 225.516L154.356 227.034L155.856 226.215Z" fill="#15191B" stroke="#15191B" stroke-width="0.85841" stroke-linecap="round" stroke-linejoin="round"/>
<path d="M143.417 223.777L147.778 225.075L149.298 224.219L144.958 222.9L143.417 223.777Z" fill="#15191B" stroke="#15191B" stroke-width="0.85841" stroke-linecap="round" stroke-linejoin="round"/>
<path d="M117.203 215.966L120.228 216.869L122.155 215.961L119.156 215.047L117.203 215.966Z" fill="#15191B" stroke="#15191B" stroke-width="0.85841" stroke-linecap="round" stroke-linejoin="round"/>
<path d="M121.823 217.342L125.291 218.377L127.065 217.453L123.739 216.444L121.823 217.342Z" fill="#15191B" stroke="#15191B" stroke-width="0.85841" stroke-linecap="round" stroke-linejoin="round"/>
<path d="M126.817 218.829L130.671 219.979L132.403 219.081L128.581 217.915L126.817 218.829Z" fill="#15191B" stroke="#15191B" stroke-width="0.85841" stroke-linecap="round" stroke-linejoin="round"/>
<path d="M134.848 245.752L134.594 249.156L164.726 232.451L165.042 228.653L134.848 245.752Z" fill="white" stroke="#15191B" stroke-width="0.85841" stroke-linecap="round" stroke-linejoin="round"/>
<path d="M160.66 234.662V238.781L164.514 236.706L164.726 232.451L160.66 234.662Z" fill="white" stroke="#15191B" stroke-width="0.85841" stroke-linecap="round" stroke-linejoin="round"/>
<path d="M160.66 238.781L155.344 237.741L160.766 234.662L160.66 238.781Z" fill="#15191B" stroke="#15191B" stroke-width="0.85841" stroke-linecap="round" stroke-linejoin="round"/>
<path d="M134.594 249.156L24.8239 210.765L24.845 207.792L134.848 245.752L134.594 249.156Z" fill="white" stroke="#15191B" stroke-width="0.85841" stroke-linecap="round" stroke-linejoin="round"/>
<path d="M159.462 186.08L127.541 197.532L185.807 212.294L218.325 198.593L159.462 186.08Z" fill="#15191B" stroke="#15191B" stroke-width="0.85841" stroke-linecap="round" stroke-linejoin="round"/>
<path d="M127.541 197.532V199.329L185.712 214.658L185.807 212.294L127.541 197.532Z" fill="white" stroke="#15191B" stroke-width="0.85841" stroke-linecap="round" stroke-linejoin="round"/>
<path d="M185.807 212.294L218.325 198.593L218.088 200.574L185.712 214.658L185.807 212.294Z" fill="white" stroke="#15191B" stroke-width="0.85841" stroke-linecap="round" stroke-linejoin="round"/>
<path d="M163.221 171.791L161.906 192.048L160.069 192.83L193.299 200.674L195.137 199.891L196.583 177.932L163.221 171.791Z" fill="white" stroke="#15191B" stroke-width="0.85841" stroke-linecap="round" stroke-linejoin="round"/>
<path d="M161.378 172.574L160.069 192.83L193.299 200.674L194.741 178.72L161.378 172.574Z" fill="#15191B" stroke="#15191B" stroke-width="0.85841" stroke-linecap="round" stroke-linejoin="round"/>
<path d="M270.673 44.8511L268.683 44.0999L265.906 44.268L265.674 45.0244L110.503 54.2177C109.658 54.2649 108.967 54.9164 108.882 55.7569L98.6236 161.29C98.5444 162.01 99.0407 162.671 99.7535 162.808L244.46 190.398L242.855 191.36L249.27 192.599L250.014 192.499L251.825 191.627C252.406 191.459 252.87 190.971 252.955 190.33L271.735 46.5269C271.835 45.7599 271.36 45.0822 270.673 44.8511Z" fill="white" stroke="#15191B" stroke-width="0.85841" stroke-linecap="round" stroke-linejoin="round"/>
<path d="M107.948 54.743L96.5223 162.162C96.4431 162.882 96.9394 163.543 97.6522 163.68L249 192.536C249.887 192.704 250.737 192.095 250.853 191.202L269.633 45.7599C269.76 44.788 268.968 43.9423 267.986 44.0001L109.568 53.2038C108.724 53.2511 108.032 53.9025 107.948 54.743Z" fill="#15191B" stroke="#15191B" stroke-width="0.85841" stroke-linecap="round" stroke-linejoin="round"/>
<path d="M111.427 57.9843L101.807 147.08L246.603 169.18L262.923 49.6316L111.427 57.9843Z" fill="#B0A3FF"/>
<path d="M127.366 117.036C150.544 109.976 176.494 102.201 200.469 95.3087C224.766 88.3271 244.307 85.7005 257.976 84.923" stroke="#15191B" stroke-width="0.85841" stroke-linecap="round" stroke-linejoin="round"/>
<path d="M110.128 71.3118C110.128 71.3118 156.917 72.3887 208.03 93.1601" stroke="#15191B" stroke-width="0.85841" stroke-linecap="round" stroke-linejoin="round"/>
<path d="M147.313 154.461C147.313 154.461 182.84 121.291 216.488 103.83C244.829 89.1204 257.036 88.7684 257.036 88.7684" stroke="#15191B" stroke-width="0.85841" stroke-linecap="round" stroke-linejoin="round"/>
<path d="M97.6522 163.68L249 192.536C249.887 192.704 250.737 192.095 250.853 191.202L252.68 177.076L97.6099 151.95L96.5223 162.167C96.4431 162.887 96.9394 163.549 97.6522 163.685V163.68Z" fill="white" stroke="#15191B" stroke-width="0.85841" stroke-linecap="round" stroke-linejoin="round"/>
<path d="M101.807 147.08L123.655 150.416L128.274 108.857L106.105 107.276L101.807 147.08Z" fill="#15191B" stroke="#15191B" stroke-width="0.85841" stroke-linecap="round" stroke-linejoin="round"/>
<path d="M125.846 121.754L121.21 121.223L119.457 134.882L124.32 135.507L125.846 121.754Z" fill="#B6BCBE" stroke="#15191B" stroke-width="0.85841" stroke-linecap="round" stroke-linejoin="round"/>
<path d="M118.697 120.309C118.697 120.346 118.681 120.377 118.665 120.404L125.904 121.234L127.076 110.659L120.065 110.16L118.697 120.309Z" fill="#B6BCBE" stroke="#15191B" stroke-width="0.85841" stroke-linecap="round" stroke-linejoin="round"/>
<path d="M118.935 134.813L120.688 121.165L113.761 120.372L112.071 133.926L118.935 134.813Z" fill="#B6BCBE" stroke="#15191B" stroke-width="0.85841" stroke-linecap="round" stroke-linejoin="round"/>
<path d="M120.392 135.533L112.002 134.451L110.492 146.581L118.935 147.873L120.392 135.533Z" fill="#B6BCBE" stroke="#15191B" stroke-width="0.85841" stroke-linecap="round" stroke-linejoin="round"/>
<path d="M118.185 120.351C118.174 120.314 118.169 120.278 118.174 120.241L119.537 110.123L115.075 109.803L113.819 119.852L118.18 120.351H118.185Z" fill="#B6BCBE" stroke="#15191B" stroke-width="0.85841" stroke-linecap="round" stroke-linejoin="round"/>
<path d="M120.915 135.596L119.452 147.952L122.879 148.472L124.262 136.032L120.915 135.596Z" fill="#B6BCBE" stroke="#15191B" stroke-width="0.85841" stroke-linecap="round" stroke-linejoin="round"/>
</g>
<defs>
<clipPath id="clip0_1_296">
<rect width="314.178" height="300.443" fill="white" transform="translate(0.822021)"/>
</clipPath>
</defs>
</svg>
