<svg width="196" height="174" viewBox="0 0 196 174" fill="none" xmlns="http://www.w3.org/2000/svg">
<g clip-path="url(#clip0_7_1086)">
<path d="M184.454 22.5554H173.653V11.7536C173.653 5.8126 168.792 0.951782 162.851 0.951782H11.6255C5.68455 0.951782 0.82373 5.8126 0.82373 11.7536V141.375C0.82373 147.316 5.68455 152.177 11.6255 152.177H22.4274V162.979C22.4274 168.92 27.2882 173.781 33.2292 173.781H184.454C190.396 173.781 195.256 168.92 195.256 162.979V33.3572C195.256 27.4162 190.396 22.5554 184.454 22.5554ZM22.4274 33.3572V141.375H11.6471L11.6255 141.354V11.7752L11.6471 11.7536H162.829L162.851 11.7752V22.5554H33.2292C27.2882 22.5554 22.4274 27.4162 22.4274 33.3572ZM184.454 162.957L184.433 162.979H33.2508L33.2292 162.957V33.3788L33.2508 33.3572H184.433L184.454 33.3788V162.957Z" fill="#15191B"/>
<path d="M162.851 60.3621C162.849 64.6607 161.14 68.7828 158.1 71.8214C155.059 74.86 150.936 76.5662 146.637 76.5648C142.339 76.5634 138.217 74.8543 135.178 71.8137C132.14 68.7731 130.433 64.6499 130.435 60.3513C130.436 56.0526 132.145 51.9306 135.186 48.892C138.226 45.8534 142.35 44.1471 146.648 44.1486C150.947 44.15 155.069 45.859 158.107 48.8996C161.146 51.9403 162.852 56.0634 162.851 60.3621ZM173.653 152.177H44.031V130.574L81.8373 65.763L125.045 119.772H135.846L173.653 87.3666V152.177Z" fill="#15191B"/>
</g>
<defs>
<clipPath id="clip0_7_1086">
<rect width="194.433" height="172.829" fill="white" transform="translate(0.82373 0.951782)"/>
</clipPath>
</defs>
</svg>
