<svg width="56" height="56" viewBox="0 0 56 56" fill="none" xmlns="http://www.w3.org/2000/svg">
<path d="M49 8.75V17.5C49 17.9641 48.8156 18.4092 48.4874 18.7374C48.1592 19.0656 47.7141 19.25 47.25 19.25C46.7859 19.25 46.3408 19.0656 46.0126 18.7374C45.6844 18.4092 45.5 17.9641 45.5 17.5V10.5H38.5C38.0359 10.5 37.5907 10.3156 37.2626 9.98744C36.9344 9.65925 36.75 9.21413 36.75 8.75C36.75 8.28587 36.9344 7.84075 37.2626 7.51256C37.5907 7.18437 38.0359 7 38.5 7H47.25C47.7141 7 48.1592 7.18437 48.4874 7.51256C48.8156 7.84075 49 8.28587 49 8.75ZM17.5 45.5H10.5V38.5C10.5 38.0359 10.3156 37.5907 9.98744 37.2626C9.65925 36.9344 9.21413 36.75 8.75 36.75C8.28587 36.75 7.84075 36.9344 7.51256 37.2626C7.18437 37.5907 7 38.0359 7 38.5V47.25C7 47.7141 7.18437 48.1592 7.51256 48.4874C7.84075 48.8156 8.28587 49 8.75 49H17.5C17.9641 49 18.4092 48.8156 18.7374 48.4874C19.0656 48.1592 19.25 47.7141 19.25 47.25C19.25 46.7859 19.0656 46.3408 18.7374 46.0126C18.4092 45.6844 17.9641 45.5 17.5 45.5ZM47.25 36.75C46.7859 36.75 46.3408 36.9344 46.0126 37.2626C45.6844 37.5907 45.5 38.0359 45.5 38.5V45.5H38.5C38.0359 45.5 37.5907 45.6844 37.2626 46.0126C36.9344 46.3408 36.75 46.7859 36.75 47.25C36.75 47.7141 36.9344 48.1592 37.2626 48.4874C37.5907 48.8156 38.0359 49 38.5 49H47.25C47.7141 49 48.1592 48.8156 48.4874 48.4874C48.8156 48.1592 49 47.7141 49 47.25V38.5C49 38.0359 48.8156 37.5907 48.4874 37.2626C48.1592 36.9344 47.7141 36.75 47.25 36.75ZM8.75 19.25C9.21413 19.25 9.65925 19.0656 9.98744 18.7374C10.3156 18.4092 10.5 17.9641 10.5 17.5V10.5H17.5C17.9641 10.5 18.4092 10.3156 18.7374 9.98744C19.0656 9.65925 19.25 9.21413 19.25 8.75C19.25 8.28587 19.0656 7.84075 18.7374 7.51256C18.4092 7.18437 17.9641 7 17.5 7H8.75C8.28587 7 7.84075 7.18437 7.51256 7.51256C7.18437 7.84075 7 8.28587 7 8.75V17.5C7 17.9641 7.18437 18.4092 7.51256 18.7374C7.84075 19.0656 8.28587 19.25 8.75 19.25ZM15.75 17.5V38.5C15.75 38.9641 15.9344 39.4092 16.2626 39.7374C16.5908 40.0656 17.0359 40.25 17.5 40.25H38.5C38.9641 40.25 39.4092 40.0656 39.7374 39.7374C40.0656 39.4092 40.25 38.9641 40.25 38.5V17.5C40.25 17.0359 40.0656 16.5908 39.7374 16.2626C39.4092 15.9344 38.9641 15.75 38.5 15.75H17.5C17.0359 15.75 16.5908 15.9344 16.2626 16.2626C15.9344 16.5908 15.75 17.0359 15.75 17.5Z" fill="black"/>
</svg>
